<svg xmlns="http://www.w3.org/2000/svg" xmlns:svgjs="http://svgjs.dev/svgjs" xmlns:xlink="http://www.w3.org/1999/xlink" width="1000" height="1000" version="1.1" viewBox="0 0 1000 1000"><rect width="1000" height="1000" fill="#000"/><g transform="matrix(0.7,0,0,0.7,150.20792248224598,98.52534497546327)"><svg xmlns="http://www.w3.org/2000/svg" xmlns:xlink="http://www.w3.org/1999/xlink" width="1000" height="1148" data-background-color="#ffffff" preserveAspectRatio="xMidYMid meet" viewBox="0 0 215 247"><g id="tight-bounds" transform="matrix(1,0,0,1,-0.06386190526126256,-0.09999973999580902)"><svg width="215.128" height="247.2" viewBox="0 0 215.128 247.2"><g><svg width="215.128" height="247.2" viewBox="0 0 397.498 456.758"><g><rect id="o-0" width="397.498" height="10.254" x="0" y="220.507" fill="#fff" fill-opacity="1" stroke="transparent" stroke-width="0" class="rect-o-0" data-fill-palette-color="primary" data-palette-color="#6f605b" opacity="1" rx="1%"/></g><g><rect id="o-1" width="397.498" height="10.254" x="0" y="244.183" fill="#fff" fill-opacity="1" stroke="transparent" stroke-width="0" class="rect-o-1" data-fill-palette-color="primary" data-palette-color="#6f605b" opacity="1" rx="1%"/></g><g transform="matrix(1,0,0,1,0.9887999999999693,281.28097513371193)"><svg width="395.52" height="175.477" viewBox="0 0 395.52 175.477"><g><svg width="395.52" height="175.477" viewBox="0 0 395.52 175.477"><g><svg width="395.52" height="113.708" viewBox="0 0 395.52 113.708"><g transform="matrix(1,0,0,1,0,0)"><svg width="395.52" height="113.708" data-palette-color="#6f605b" viewBox="-2.36 -30.96 154.42 44.4"><path id="text-0" fill="#fff" d="M21.48-29.12L21.48-29.12Q19.68-29.12 18.5-26.7 17.32-24.28 16.58-20.42 15.84-16.56 15.06-12.44 14.28-8.32 12.72-4.26 11.16-0.2 8.92 2L8.92 2Q10.32 2.56 13.08 3.7 15.84 4.84 17.48 5.48L17.48 5.48Q22 7.24 24.24 7.24L24.24 7.24Q26.44 7.24 27.6 5.84L27.6 5.84Q27.88 5.48 28.04 5.04L28.04 5.04Q28.68 5.04 28.68 6L28.68 6Q28.68 7.64 27.18 8.62 25.68 9.6 23.8 9.6 21.92 9.6 19.56 8.86 17.2 8.12 15.76 7.48 14.32 6.84 11.22 5.22 8.12 3.6 7.36 3.24L7.36 3.24Q5.16 4.68 2.02 4.68-1.12 4.68-2.08 2.92L-2.08 2.92Q-2.36 2.44-2.36 1.86-2.36 1.28-1.6 0.58-0.84-0.12 1.08-0.12 3-0.12 7.12 1.36L7.12 1.36Q10.32-2.24 12.24-13.36L12.24-13.36Q12.96-17.68 13.84-21.74 14.72-25.8 16.38-28.38 18.04-30.96 20.6-30.96L20.6-30.96Q21.72-30.96 22.3-30.4 22.88-29.84 22.88-29.28L22.88-29.28 22.92-28.72Q22.52-29.12 21.48-29.12ZM23.88-20.56L23.88-20.56Q23.88-20.4 23.54-20.36 23.2-20.32 22.84-20.48 22.48-20.64 22.48-20.92L22.48-20.92Q22.48-25 23.4-27.5 24.32-30 25.84-30L25.84-30Q26.24-30 26.52-29.72 26.8-29.44 26.8-28.96L26.8-28.96Q24.96-27.12 24.2-23.6L24.2-23.6Q23.88-22.16 23.88-20.56ZM-1.24 2.08L-1.24 2.08Q-1.24 2.8-0.22 3.22 0.8 3.64 2.48 3.64 4.16 3.64 5.84 2.48L5.84 2.48Q2.32 0.88 0.32 0.88L0.32 0.88Q-0.92 0.88-1.2 1.76L-1.2 1.76Q-1.24 1.92-1.24 2.08ZM37.36 3L37.36 3Q37.84 3 38.26 2.58 38.68 2.16 39.04 1.28L39.04 1.28Q39.08 0.92 39.52 0.92 39.96 0.92 39.86 1.28 39.76 1.64 39.54 2.16 39.32 2.68 38.62 3.54 37.92 4.4 37.2 4.4L37.2 4.4Q35.6 4.4 34.72 2.4L34.72 2.4Q33.8 0.4 33.8-2.54 33.8-5.48 34.24-8.6L34.24-8.6 33.88-8.6Q29.04-0.16 26.44-0.16L26.44-0.16Q23.36-0.16 23.36-4.86 23.36-9.56 25.36-14.24L25.36-14.24Q27.56-19.4 29.24-19.4L29.24-19.4Q29.96-19.4 29.96-18.52L29.96-18.52Q28.28-14.08 27.08-9.88 25.88-5.68 25.88-3.62 25.88-1.56 26.84-1.56L26.84-1.56Q27.52-1.56 28.86-3.2 30.2-4.84 31.6-7.2L31.6-7.2Q34.6-12.28 36.18-15.84 37.76-19.4 39.44-19.4L39.44-19.4Q40.24-19.4 40.24-18.52L40.24-18.52Q37.68-13.44 36.6-6.4L36.6-6.4Q36.16-3.6 36.16-0.92L36.16-0.92Q36.16 3 37.36 3ZM54.12 1.4L54.12 1.4Q52.4 1.4 50.92-0.94 49.44-3.28 47.88-7.36L47.88-7.36Q45.8-4.08 44.52-2.42 43.24-0.76 42.44-0.76L42.44-0.76Q42-0.76 41.78-1.02 41.56-1.28 41.56-1.56L41.56-1.56 41.56-1.84Q41.84-1.84 42.2-2.22 42.56-2.6 42.82-2.88 43.08-3.16 43.44-3.66 43.8-4.16 44.08-4.56 44.36-4.96 44.8-5.62 45.24-6.28 45.54-6.74 45.84-7.2 46.36-8L46.36-8Q46.36-8 47.2-9.24L47.2-9.24Q47-9.8 46.68-10.68 46.36-11.56 46.16-12.12 45.96-12.68 45.7-13.42 45.44-14.16 45.24-14.64 45.04-15.12 44.8-15.68 44.56-16.24 44.38-16.58 44.2-16.92 43.96-17.2L43.96-17.2Q43.56-17.8 43.2-17.8L43.2-17.8Q43.24-17.96 43.3-18.22 43.36-18.48 43.82-18.92 44.28-19.36 44.96-19.36L44.96-19.36Q45.96-19.36 46.94-17.44 47.92-15.52 49.08-12.04L49.08-12.04Q53.76-18.6 55.8-18.6L55.8-18.6Q56.28-18.6 56.58-18.32 56.88-18.04 56.96-17.48L56.96-17.48Q55.52-17.48 53.74-15.54 51.96-13.6 49.68-10.16L49.68-10.16Q52-2.8 52.9-1.38 53.8 0.04 54.34 0.04 54.88 0.04 55.32-0.34 55.76-0.72 55.92-0.72L55.92-0.72Q56.48-0.72 55.88 0.16L55.88 0.16Q55.72 0.44 55.18 0.92 54.64 1.4 54.12 1.4ZM68.83-19.4L68.83-19.4Q71.87-19.4 71.87-15.84L71.87-15.84Q71.87-13.8 70.51-11.56L70.51-11.56Q68.19-7.84 64.35-7.84L64.35-7.84Q63.75-7.84 63.35-8.04 62.95-8.24 62.75-8.64L62.75-8.64Q65.59-8.64 67.95-11.92L67.95-11.92Q69.87-14.56 69.87-16.76L69.87-16.76Q69.87-18.4 68.55-18.4L68.55-18.4Q65.91-18.4 63.63-14.28L63.63-14.28Q61.19-9.8 61.19-5.08L61.19-5.08Q61.19-1.08 63.47-0.28L63.47-0.28Q63.91-0.12 64.59-0.12 65.27-0.12 66.03-0.46 66.79-0.8 67.31-1.28L67.31-1.28Q68.35-2.24 69.03-3.4L69.03-3.4Q69.19-3.72 69.63-3.72L69.63-3.72Q70.35-3.72 70.31-3.48L70.31-3.48Q70.19-3.04 69.41-2 68.63-0.96 67.97-0.34 67.31 0.28 66.25 0.78 65.19 1.28 64.11 1.28L64.11 1.28Q59.87 1.28 58.71-2.72L58.71-2.72Q58.35-4.08 58.35-5.52L58.35-5.52Q58.35-8.2 59.59-11.36L59.59-11.36Q61.55-16.16 64.99-18.28L64.99-18.28Q66.87-19.4 68.83-19.4ZM79.83 5.84L79.83 5.84Q77.51 5.84 76.41 3.4 75.31 0.96 75.31-3.92 75.31-8.8 76.75-15.48 78.19-22.16 80.13-26.56 82.07-30.96 83.51-30.96L83.51-30.96Q84.19-30.96 84.19-30.16L84.19-30.16Q83.35-28.24 82.07-24.38 80.79-20.52 79.93-17.24 79.07-13.96 78.37-9.56 77.67-5.16 77.67-2.02 77.67 1.12 78.29 2.82 78.91 4.52 79.99 4.52L79.99 4.52Q80.91 4.52 81.75 3.66 82.59 2.8 82.95 1.96L82.95 1.96Q83.15 1.52 83.67 1.72L83.67 1.72Q83.87 1.8 83.77 2.06 83.67 2.32 83.45 2.72 83.23 3.12 82.67 3.96L82.67 3.96Q81.47 5.84 79.83 5.84ZM85.51-3.4L85.51-3.4Q85.51-9.32 86.73-13.96 87.95-18.6 89.83-18.6L89.83-18.6Q90.75-18.6 90.75-17.6L90.75-17.6Q90.35-16.56 89.75-14.84 89.15-13.12 88.17-8.62 87.19-4.12 87.19-0.6L87.19-0.6Q87.19-0.04 86.59-0.04L86.59-0.04Q85.51-0.04 85.51-3.4ZM91.35-23.04L90.87-22.36Q90.03-22.36 90.03-23.96L90.03-23.96Q90.03-24.92 90.55-25.98 91.07-27.04 92.03-27.04L92.03-27.04Q92.83-27.04 92.83-26.12L92.83-26.12Q92.83-25.2 91.35-23.04L91.35-23.04ZM105.83-18.12L105.83-18.12Q106.98-17.24 108.05-17.24 109.11-17.24 109.55-17.52L109.55-17.52Q109.55-17 109.09-16.54 108.63-16.08 107.77-16.08 106.91-16.08 105.91-16.48L105.91-16.48Q105.78-12.72 104.47-8.78 103.15-4.84 101.06-2.18 98.98 0.48 96.92 0.48 94.87 0.48 93.98-1.22 93.11-2.92 93.11-5.12L93.11-5.12Q93.11-7.76 93.84-10.78 94.59-13.8 95.59-15.64 96.59-17.48 97.39-17.48 98.19-17.48 98.19-16.64L98.19-16.64Q95.67-7.92 95.67-4.4 95.67-0.88 97.23-0.88L97.23-0.88Q98.59-0.88 100.33-3.24 102.06-5.6 103.34-9.46 104.63-13.32 104.63-17L104.63-17 104.63-17.24Q103.47-18.08 102.75-19.24 102.03-20.4 102.03-20.98 102.03-21.56 102.55-22.04 103.06-22.52 103.67-22.52L103.67-22.52Q104.39-22.52 105-21.18 105.63-19.84 105.83-18.12ZM109.78-3.4L109.78-3.4Q109.78-9.32 111-13.96 112.22-18.6 114.1-18.6L114.1-18.6Q115.02-18.6 115.02-17.6L115.02-17.6Q114.62-16.56 114.02-14.84 113.42-13.12 112.44-8.62 111.46-4.12 111.46-0.6L111.46-0.6Q111.46-0.04 110.86-0.04L110.86-0.04Q109.78-0.04 109.78-3.4ZM115.62-23.04L115.14-22.36Q114.3-22.36 114.3-23.96L114.3-23.96Q114.3-24.92 114.82-25.98 115.34-27.04 116.3-27.04L116.3-27.04Q117.1-27.04 117.1-26.12L117.1-26.12Q117.1-25.2 115.62-23.04L115.62-23.04ZM120.18-6.48L120.54-6.48Q125.7-19.24 130.58-19.24L130.58-19.24Q132.62-19.24 132.62-17.28L132.62-17.28Q132.34-16.36 131.9-14.86 131.46-13.36 130.72-9.48 129.98-5.6 129.98-2.68L129.98-2.68Q129.98 1.56 131.22 1.56L131.22 1.56Q131.7 1.56 132.14 1.18 132.58 0.8 132.74 0.8L132.74 0.8Q133.3 0.8 132.74 1.68L132.74 1.68Q132.54 1.96 132 2.44 131.46 2.92 130.9 2.92L130.9 2.92Q129.38 2.92 128.52 0.74 127.66-1.44 127.66-4.92L127.66-4.92Q127.66-10.44 129.38-17.04L129.38-17.04Q129.54-17.56 129.06-17.56L129.06-17.56Q128.74-17.56 128.34-17.24L128.34-17.24Q126.42-15.56 124.3-11.68 122.18-7.8 120.98-4.74 119.78-1.68 119.78-1.18 119.78-0.68 119.22-0.68L119.22-0.68Q117.94-0.68 117.94-3.84L117.94-3.84Q117.94-9.8 119.16-14.64 120.38-19.48 122.1-19.48L122.1-19.48Q122.82-19.48 122.82-18.6L122.82-18.6Q120.98-12.64 120.18-6.48L120.18-6.48ZM138.74 0L138.74 0Q135.46 0 135.46-5.16L135.46-5.16Q135.46-8.24 136.98-11.92L136.98-11.92Q139.1-17.08 142.54-18.96L142.54-18.96Q144.02-19.76 145.3-19.76 146.58-19.76 147.32-19.2 148.06-18.64 148.26-18.08L148.26-18.08 148.5-17.56Q148.38-16.88 147.82-16.88L147.82-16.88Q147.18-16.88 147.08-17.18 146.98-17.48 146.86-17.7 146.74-17.92 146.3-18.3 145.86-18.68 145.3-18.68L145.3-18.68Q142.7-18.68 140.58-14L140.58-14Q138.18-8.6 138.18-3.84L138.18-3.84Q138.18-1.44 139.14-1.44L139.14-1.44Q140.46-1.44 143.4-6.06 146.34-10.68 148.7-15.52L148.7-15.52Q149.9-17.96 151.22-17.96L151.22-17.96Q152.06-17.96 152.06-17L152.06-17Q151.9-16.72 151.58-16.08 151.26-15.44 150.42-12.42 149.58-9.4 148.9-5.5 148.22-1.6 147.74 0.6L147.74 0.6Q150.78 1.12 151.26 3.24L151.26 3.24Q151.34 3.6 151.34 4.22 151.34 4.84 150.86 5.3 150.38 5.76 150.02 5.76L150.02 5.76Q150.1 5.48 150.06 4.78 150.02 4.08 149.8 3.6 149.58 3.12 148.98 2.6 148.38 2.08 147.42 1.84L147.42 1.84Q146.18 6.72 143.86 9.88L143.86 9.88Q141.22 13.44 136.74 13.44L136.74 13.44Q133.46 13.44 132.38 11.12L132.38 11.12Q132.34 11 132.34 10.92L132.34 10.92Q132.34 10.68 132.78 10.58 133.22 10.48 133.38 10.88L133.38 10.88Q134.1 12.52 136.74 12.52L136.74 12.52Q140.34 12.52 142.34 9.12L142.34 9.12Q144.14 6.12 145.1 1.64L145.1 1.64Q137.9 1.8 133.98 7.16L133.98 7.16Q133.74 7.52 133.22 7.28L133.22 7.28Q132.94 7.12 133.06 6.88L133.06 6.88Q134.78 4.28 137.86 2.46 140.94 0.64 145.34 0.48L145.34 0.48Q145.78-1.52 146.12-3.74 146.46-5.96 146.7-7.24 146.94-8.52 147.02-9.08L147.02-9.08 146.58-9.08Q141.3 0 138.74 0Z" class="undefined-text-0" data-fill-palette-color="primary" opacity="1" transform="matrix(1,0,0,1,0,0)"/></svg></g></svg></g><g transform="matrix(1,0,0,1,75.54432,140.55192573613053)"><svg width="244.431" height="34.926" viewBox="0 0 244.431 34.926"><g transform="matrix(1,0,0,1,0,0)"><svg width="244.431" height="34.926" data-palette-color="#f36527" viewBox="1.5 -35.5 257.18 36.75"><path id="text-1" fill="#fff" d="M21.05-19.15L25.5-23.9 23.7-30.35 16.35-31.65 11.2-30.85 12.05-19.75 21.05-19.15ZM32.5-9.45L35.65-6.15 29.45-0.6 25.55-1.25 22.9-13 18.2-16.45 11.7-15.5 11.85-3.1 15-2.05 15.4-0.15 4.65-0.3 4.55-1.65 7.5-2.8 6.9-29.25 5.1-31.2 1.5-31.6 1.65-34.3 5.75-34.4 7.85-33.55 9.1-34.65 22.7-34.45 29-28.65 28.1-20.3 23.75-17 27.45-13.45 27.8-4.45 28.9-4.05 32.5-9.45ZM42.4-13.2L42.45-13.4 54.15-15.25 52.75-21.8 49.4-23.05 42.85-20.85 42.4-13.2ZM45.55-25.7L52.6-25.15 56.6-21.65 58.05-13.05 42.4-10.55 45.1-2.6 51-2.75 58-4.85 58.4-0.9 44.3 1.1 38.15-8 38.85-20.85 45.55-25.7ZM77.5-13.1L73.25-12.95 67.65-9.2 67.5-3.6 69.5-2.55Q70.5-2.6 71.34-2.65L71.34-2.65Q72.05-2.7 72.62-2.78 73.2-2.85 73.2-2.95L73.2-2.95Q73.2-2.95 73.4-3.25 73.59-3.55 73.92-4.03 74.25-4.5 74.65-5.08 75.05-5.65 75.5-6.25L75.5-6.25Q76.5-7.65 77.84-9.45L77.84-9.45 77.5-13.1ZM64.8-22.8L70.05-26.45 81.34-23.8 81.55-3.25 85.8-2.95 85.84-0.65 79.65-0.05 77.55-4.45 74.95-0.35 66.5 1.25 63.4-2.5 63.6-10.1 72.15-15.65 77.45-16.35 77.84-21.8 69.5-22.9 67.05-18.65 64.3-21.55 64.8-22.8ZM99.79-1.95L100.04-0.05 89.49-0.25 89.34-1.55 92.94-2.6 92.94-32.6 90.29-32.05 90.49-35.35 96.84-35.5 96.39-2.65 99.79-1.95ZM146.29-7.3L146.34 0.6 120.34 0.25 120.09-1.45 125.09-2.35 123.39-32.15 118.94-33.7 118.54-35.45 145.44-34.8 145.49-28.35 142.94-28.45 142.19-31.6 128.64-31.65 127.69-30.4 127.94-19.65 143.34-18.6 142.89-16.4 128.09-16.1 127.94-11.95 130.49-3.45 143.14-2.95 143.74-7 146.29-7.3ZM152.99-24.7L161.24-26.1 166.84-23.8 168.84-25.75 170.99-24.25 167.19-19.15 165.39-20.85 157.19-22.8 154.53-19.7 157.99-14.85 168.04-12.35 169.44-3.85 162.84 0.25 154.03-1.75 152.84 0.3 150.34-0.15 152.03-5.4 162.24-3 165.39-5.35 164.19-9.55 153.49-13.2 150.59-19.15 152.99-24.7ZM190.18-4.3L190.18-1.55 181.98 0 178.08-3.85 178.08-9 178.08-21.9 175.68-21.5 173.73-21.05 173.38-23.45 176.93-24.6 177.63-24.6 177.63-29.3 176.93-30.9 181.18-30.9 181.58-26.55 181.58-24.95 188.58-25.8 188.58-21.9 181.58-22.25 181.58-5.8 183.93-3.15 190.18-4.3ZM207.83-13.1L203.58-12.95 197.98-9.2 197.83-3.6 199.83-2.55Q200.83-2.6 201.68-2.65L201.68-2.65Q202.38-2.7 202.96-2.78 203.53-2.85 203.53-2.95L203.53-2.95Q203.53-2.95 203.73-3.25 203.93-3.55 204.26-4.03 204.58-4.5 204.98-5.08 205.38-5.65 205.83-6.25L205.83-6.25Q206.83-7.65 208.18-9.45L208.18-9.45 207.83-13.1ZM195.13-22.8L200.38-26.45 211.68-23.8 211.88-3.25 216.13-2.95 216.18-0.65 209.98-0.05 207.88-4.45 205.28-0.35 196.83 1.25 193.73-2.5 193.93-10.1 202.48-15.65 207.78-16.35 208.18-21.8 199.83-22.9 197.38-18.65 194.63-21.55 195.13-22.8ZM234.88-4.3L234.88-1.55 226.68 0 222.78-3.85 222.78-9 222.78-21.9 220.38-21.5 218.43-21.05 218.08-23.45 221.63-24.6 222.33-24.6 222.33-29.3 221.63-30.9 225.88-30.9 226.28-26.55 226.28-24.95 233.28-25.8 233.28-21.9 226.28-22.25 226.28-5.8 228.63-3.15 234.88-4.3ZM242.68-13.2L242.73-13.4 254.43-15.25 253.03-21.8 249.68-23.05 243.13-20.85 242.68-13.2ZM245.83-25.7L252.88-25.15 256.88-21.65 258.32-13.05 242.68-10.55 245.38-2.6 251.28-2.75 258.28-4.85 258.68-0.9 244.58 1.1 238.43-8 239.13-20.85 245.83-25.7Z" class="undefined-text-1" data-fill-palette-color="secondary" opacity="1" transform="matrix(1,0,0,1,0,0)"/></svg></g></svg></g></svg></g></svg></g><g transform="matrix(1,0,0,1,76.53311999999997,0)"><svg width="244.431" height="193.663" viewBox="0 0 244.431 193.663"><g><svg xmlns="http://www.w3.org/2000/svg" xmlns:xlink="http://www.w3.org/1999/xlink" id="icon-0" width="244.431" height="193.663" x="0" y="0" class="icon-icon-0" data-fill-palette-color="accent" enable-background="new 0 0 144.083 144" version="1.1" viewBox="11.874 24.329 120.335 95.341" xml:space="preserve"><path fill="#fff" d="M132.123 84.01l-10.002-40.911c-0.328-1.343-1.531-2.288-2.914-2.288H50.291V27.329c0-1.657-1.343-3-3-3h-14c-1.657 0-3 1.343-3 3v13.482h-5.416c-1.382 0-2.586 0.945-2.914 2.288L11.96 84.01c-0.219 0.895-0.015 1.84 0.554 2.564s1.439 1.147 2.36 1.147h1.733v28.949c0 1.657 1.343 3 3 3h33.275 9.746 18.824 9.746 33.275c1.657 0 3-1.343 3-3V87.722h1.734c0.921 0 1.791-0.423 2.359-1.147C132.137 85.85 132.341 84.904 132.123 84.01zM125.386 81.722H94.199V67.257c0-0.707-0.25-1.391-0.705-1.932l-7.123-8.46h32.938L125.386 81.722zM72.217 49.369l15.981 18.982v45.319h-4.996V86.603c0-1.657-1.343-3-3-3H63.878c-1.657 0-3 1.343-3 3v27.068h-4.996V68.369L72.217 49.369zM66.878 112.86V89.603h10.324v23.258H66.878zM117.842 50.864H81.32l-3.412-4.053h38.944L117.842 50.864zM36.291 30.329h8v10.482h-8V30.329zM66.504 46.812l-3.484 4.053H26.239l0.991-4.053H66.504zM24.772 56.864h33.089l-7.254 8.437c-0.468 0.544-0.725 1.238-0.725 1.956v14.465H18.696L24.772 56.864zM22.607 87.722h27.275v25.949h-4.638v-12.537c0-5.24-4.264-9.504-9.505-9.504-5.24 0-9.504 4.264-9.504 9.504v12.537h-3.629V87.722zM39.245 113.671h-7.009v-12.537c0-1.933 1.572-3.504 3.504-3.504 1.933 0 3.505 1.571 3.505 3.504V113.671zM111.212 113.671h-7.006v-12.537c0-1.933 1.571-3.504 3.502-3.504 1.932 0 3.504 1.571 3.504 3.504V113.671zM121.474 113.671h-4.262v-12.537c0-5.24-4.264-9.504-9.504-9.504-5.239 0-9.502 4.264-9.502 9.504v12.537h-4.008V87.722h27.275V113.671z" data-fill-palette-color="accent"/></svg></g></svg></g></svg></g></svg><rect width="215.128" height="247.2" fill="none" stroke="none" visibility="hidden"/></g></svg></g></svg>